<svg width="240" height="49" viewBox="0 0 240 49" fill="none" xmlns="http://www.w3.org/2000/svg">
<path d="M11.288 13.144L11.224 13.336L11.16 13.4C10.904 14.2107 10.776 15.2987 10.776 16.664L10.84 18.712C10.8827 19.096 10.904 19.608 10.904 20.248C10.904 20.9733 10.8613 22.104 10.776 23.64C10.6907 25.2613 10.648 26.4987 10.648 27.352C10.648 29.912 10.9467 32.1733 11.544 34.136C12.184 36.056 13.3787 37.016 15.128 37.016C15.8107 37.016 16.4507 36.8667 17.048 36.568C17.6453 36.2267 18.136 35.7573 18.52 35.16C18.776 34.7333 18.9467 34.072 19.032 33.176C19.1173 32.2373 19.16 31.6827 19.16 31.512C19.2027 30.5307 19.2667 29.8053 19.352 29.336C19.4373 28.824 19.5867 28.504 19.8 28.376C20.184 28.504 20.5893 28.568 21.016 28.568C21.3573 28.568 21.8693 28.5253 22.552 28.44C23.1493 28.312 23.704 28.248 24.216 28.248C26.0507 28.248 27.4373 28.4187 28.376 28.76C28.9733 29.4 29.272 30.9787 29.272 33.496C29.272 36.2267 28.6533 38.7013 27.416 40.92C26.1787 43.1387 24.3653 44.9093 21.976 46.232C19.5867 47.512 16.7493 48.152 13.464 48.152C8.94133 48.152 5.57067 46.9787 3.352 44.632C2.54133 43.7787 1.944 42.8187 1.56 41.752C1.21867 40.6427 1.00533 39.6613 0.92 38.808C0.877333 37.912 0.834667 36.4613 0.792 34.456C0.706667 31.9813 0.664 30.0827 0.664 28.76V21.72L0.728 17.176C0.770667 16.1947 0.792 14.7013 0.792 12.696C0.706667 12.4827 0.664 12.1413 0.664 11.672C0.664 10.8187 0.962667 9.66667 1.56 8.216C2.712 5.35733 4.184 3.288 5.976 2.008C7.81067 0.727998 10.4347 0.0879974 13.848 0.0879974C16.5787 0.0879974 19.1387 0.81333 21.528 2.264C23.9173 3.71466 25.816 5.656 27.224 8.088C28.6747 10.4773 29.4 13.016 29.4 15.704C29.4 17.3253 29.1653 18.8187 28.696 20.184C28.2693 20.6107 27.0107 20.824 24.92 20.824C22.104 20.824 20.0347 20.504 18.712 19.864C18.584 19.3093 18.4773 18.392 18.392 17.112C18.3493 15.9173 18.2427 14.9573 18.072 14.232C17.944 13.5067 17.6027 12.888 17.048 12.376C16.536 11.864 15.7253 11.608 14.616 11.608C14.36 11.6933 13.9973 11.7573 13.528 11.8C13.0587 11.8427 12.6747 11.9067 12.376 11.992C12.12 12.0773 11.864 12.248 11.608 12.504C11.4373 12.888 11.3307 13.1227 11.288 13.208V13.144ZM11.16 12.056C11.928 11.288 12.9733 10.904 14.296 10.904C15.6613 10.904 16.6853 11.2453 17.368 11.928C18.0933 12.568 18.5413 13.336 18.712 14.232C18.9253 15.128 19.0533 16.2373 19.096 17.56C19.096 17.7733 19.1173 18.0933 19.16 18.52C19.2027 18.9467 19.2453 19.288 19.288 19.544C21.6773 19.9707 23.5547 20.184 24.92 20.184C26.2427 20.184 27.3093 20.056 28.12 19.8C28.5893 18.3067 28.824 16.8773 28.824 15.512C28.824 12.952 28.0987 10.5413 26.648 8.28C25.24 6.01866 23.3413 4.20533 20.952 2.84C18.5627 1.47466 15.96 0.791996 13.144 0.791996C10.968 0.791996 8.984 1.26133 7.192 2.2C5.4 3.096 3.97067 4.41867 2.904 6.168C1.88 7.91733 1.368 9.98667 1.368 12.376C1.496 12.8027 1.56 13.4 1.56 14.168C1.56 15.6187 1.496 17.56 1.368 19.992C1.28267 21.1013 1.24 22.0187 1.24 22.744C1.24 24.4933 1.28267 27.0747 1.368 30.488L1.432 34.392C1.432 34.7333 1.432 35.6507 1.432 37.144C1.47467 38.6373 1.688 39.9813 2.072 41.176C2.456 42.3707 3.032 43.3733 3.8 44.184C5.848 46.4027 9.02667 47.512 13.336 47.512C16.4933 47.512 19.224 46.9147 21.528 45.72C23.832 44.5253 25.5813 42.8827 26.776 40.792C28.0133 38.6587 28.632 36.248 28.632 33.56C28.632 32.0667 28.44 30.6587 28.056 29.336C27.7147 29.208 27.2027 29.144 26.52 29.144C25.88 29.144 25.4107 29.1013 25.112 29.016C24.3013 29.016 23.6827 29.0373 23.256 29.08L21.4 29.144C20.76 29.144 20.2907 29.1227 19.992 29.08C19.864 29.6347 19.8 30.4667 19.8 31.576C19.8 32.9413 19.6933 33.944 19.48 34.584C19.1387 35.5653 18.584 36.3333 17.816 36.888C17.0907 37.4 16.28 37.656 15.384 37.656C13.4213 37.656 12.0347 36.696 11.224 34.776C10.456 32.8133 10.072 30.1467 10.072 26.776C10.072 25.5813 10.136 23.384 10.264 20.184L10.2 17.368C10.2 14.68 10.4987 12.952 11.096 12.184L11.16 12.056ZM58.73 26.904C58.73 28.7387 58.7727 31.448 58.858 35.032L58.922 43.16C58.922 44.5253 58.7727 45.6133 58.474 46.424C58.1753 47.192 57.6633 47.576 56.938 47.576C56.4687 47.576 56.042 47.4907 55.658 47.32H50.666C50.3247 47.4053 50.09 47.448 49.962 47.448C49.1513 47.448 48.746 46.8507 48.746 45.656C48.746 45.3147 48.7887 44.8453 48.874 44.248C47.722 45.2293 46.4847 45.9973 45.162 46.552C43.8393 47.1067 42.4953 47.384 41.13 47.384C39.7647 47.384 38.57 47.128 37.546 46.616C36.3513 46.0187 35.242 44.8453 34.218 43.096C33.2367 41.3467 32.4473 39.32 31.85 37.016C31.2953 34.6693 31.018 32.3653 31.018 30.104C31.018 27.288 31.5087 24.728 32.49 22.424C33.514 20.12 34.922 18.3067 36.714 16.984C38.506 15.6187 40.554 14.936 42.858 14.936C44.3513 14.936 45.5033 15.0853 46.314 15.384C47.1247 15.64 47.8287 16.1733 48.426 16.984C48.4687 16.6853 48.5113 16.344 48.554 15.96C48.6393 15.576 48.682 15.2347 48.682 14.936L48.874 14.552C49.2153 14.424 49.9193 14.36 50.986 14.36C51.9247 14.36 53.3753 14.4453 55.338 14.616C56.49 14.744 57.4927 14.808 58.346 14.808L58.666 15.128V15.384C58.794 15.768 58.858 16.3013 58.858 16.984C58.858 17.368 58.8367 17.7093 58.794 18.008C58.7513 18.264 58.73 18.4987 58.73 18.712V26.904ZM57.962 46.36C57.962 45.1227 58.0047 43.1813 58.09 40.536C58.218 38.5307 58.282 36.5467 58.282 34.584L58.218 25.112C58.1327 20.8453 58.09 17.688 58.09 15.64C58.0473 15.5973 58.026 15.5333 58.026 15.448C56.5753 15.448 55.1033 15.384 53.61 15.256C51.7327 15.1707 50.3033 15.128 49.322 15.128C49.322 15.512 49.258 15.9387 49.13 16.408C49.0873 16.5787 49.0447 16.7707 49.002 16.984C48.9593 17.1547 48.938 17.3893 48.938 17.688L49.002 18.072C49.002 18.1147 49.002 18.136 49.002 18.136C49.0447 18.136 49.066 18.136 49.066 18.136C48.81 18.2213 48.618 18.264 48.49 18.264H48.426L48.362 18.136C47.7647 17.112 47.0393 16.4293 46.186 16.088C45.3753 15.7467 44.266 15.576 42.858 15.576C40.6393 15.576 38.6767 16.216 36.97 17.496C35.306 18.7333 34.0047 20.4613 33.066 22.68C32.17 24.8987 31.722 27.352 31.722 30.04C31.722 32.728 32.0633 35.3733 32.746 37.976C33.4713 40.536 34.538 42.648 35.946 44.312C37.3967 45.976 39.1247 46.808 41.13 46.808C42.538 46.808 43.946 46.4667 45.354 45.784C46.8047 45.1013 48.0633 44.2267 49.13 43.16C49.2153 43.2453 49.386 43.3307 49.642 43.416C49.642 43.6293 49.5993 43.992 49.514 44.504C49.4287 44.9733 49.386 45.336 49.386 45.592C49.386 45.8907 49.4073 46.1253 49.45 46.296C49.5353 46.4667 49.6847 46.616 49.898 46.744H50.346C50.858 46.5733 51.7967 46.488 53.162 46.488C54.5273 46.488 55.466 46.5733 55.978 46.744H57.578L57.962 46.36ZM45.674 23.448C46.8687 23.448 47.7007 23.64 48.17 24.024C48.682 24.3653 49.002 25.1333 49.13 26.328C49.3007 27.48 49.386 29.4853 49.386 32.344C49.386 34.3067 49.066 35.8427 48.426 36.952C47.786 38.0187 46.698 38.552 45.162 38.552C43.1567 38.552 41.5993 37.8053 40.49 36.312C39.4233 34.776 38.89 32.984 38.89 30.936C38.89 29.7413 39.082 28.6747 39.466 27.736L39.402 27.8C39.658 26.392 40.3833 25.3253 41.578 24.6C42.7727 23.832 44.138 23.448 45.674 23.448ZM48.682 30.36L48.746 27.864C48.746 26.6693 48.5967 25.752 48.298 25.112C48.042 24.4293 47.402 24.088 46.378 24.088C44.7567 24.088 43.3487 24.3867 42.154 24.984C41.002 25.5813 40.298 26.584 40.042 27.992C39.7007 28.7173 39.53 29.6773 39.53 30.872C39.53 32.792 39.9993 34.456 40.938 35.864C41.9193 37.2293 43.2847 37.912 45.034 37.912C47.5087 37.912 48.746 36.3333 48.746 33.176L48.682 30.36ZM72.3995 0.407997C72.3995 6.21067 72.2928 12.7813 72.0795 20.12C72.0368 21.7413 71.9728 24.6213 71.8875 28.76C71.8022 32.8987 71.7595 36.632 71.7595 39.96C71.7595 42.2213 71.8875 44.44 72.1435 46.616C72.1435 46.9147 71.8235 47.128 71.1835 47.256C70.5435 47.4267 69.8608 47.512 69.1355 47.512C68.5382 47.512 67.4715 47.4693 65.9355 47.384C64.3995 47.2987 63.2048 47.256 62.3515 47.256L62.4795 45.208C62.5222 44.3547 62.5862 42.84 62.6715 40.664C62.7568 38.4453 62.7995 36.504 62.7995 34.84C62.7995 32.3653 62.7142 28.6107 62.5435 23.576C62.3728 18.6267 62.2875 14.8933 62.2875 12.376C62.2875 7.29867 62.4582 3.24533 62.7995 0.216C62.8422 0.173331 62.9062 0.173331 62.9915 0.216C63.0768 0.216 63.1408 0.194665 63.1835 0.151997L71.8875 0.343998L72.3995 0.407997ZM63.4395 0.791996C63.0555 3.992 62.8635 7.704 62.8635 11.928C62.8635 14.4453 62.9488 18.2213 63.1195 23.256C63.3328 27.5227 63.4395 31.3413 63.4395 34.712C63.4395 38.2533 63.3328 42.2213 63.1195 46.616L64.0795 46.552C64.8902 46.552 65.7008 46.616 66.5115 46.744C66.8102 46.7867 67.1515 46.8293 67.5355 46.872C67.9622 46.9147 68.4528 46.936 69.0075 46.936C69.9888 46.936 70.7995 46.7867 71.4395 46.488C71.2262 44.7813 71.1195 42.712 71.1195 40.28L71.1835 36.312C71.2262 35.4587 71.2475 34.1573 71.2475 32.408C71.2475 28.952 71.2902 23.7253 71.3755 16.728C71.5035 11.48 71.5675 6.232 71.5675 0.983997L63.4395 0.791996ZM101.139 34.84C101.011 35.3947 100.926 36.0773 100.883 36.888C100.84 37.656 100.819 38.168 100.819 38.424C100.776 39.8747 100.67 41.112 100.499 42.136C100.328 43.1173 100.008 43.9493 99.539 44.632C98.6003 45.9547 97.3843 46.8507 95.891 47.32C94.4403 47.832 92.755 48.088 90.835 48.088L88.211 48.024C87.699 47.9813 86.931 47.96 85.907 47.96C81.939 47.96 79.1443 46.616 77.523 43.928C75.9017 41.24 75.091 37.8053 75.091 33.624L75.155 30.232C75.155 29.208 75.1337 28.44 75.091 27.928L75.027 25.688C75.027 21.2933 75.731 18.328 77.139 16.792C78.9737 14.872 82.3017 13.912 87.123 13.912L90.259 13.976C91.9657 13.976 93.4163 14.168 94.611 14.552C95.8057 14.8933 97.2137 15.6613 98.835 16.856C99.859 17.624 100.499 18.7547 100.755 20.248C101.011 21.7413 101.16 23.704 101.203 26.136C101.203 27.288 101.224 28.0773 101.267 28.504C101.054 28.9733 99.9657 29.208 98.003 29.208C96.851 29.208 95.763 29.144 94.739 29.016C93.7577 28.888 93.075 28.7173 92.691 28.504C92.563 28.248 92.2643 27.672 91.795 26.776C91.3683 25.8373 90.8563 25.176 90.259 24.792C89.7043 24.3653 89.0003 24.152 88.147 24.152C87.0377 24.152 86.1843 24.4507 85.587 25.048C84.9897 25.6453 84.563 26.712 84.307 28.248C84.0937 29.7413 83.987 31.9387 83.987 34.84C83.987 36.0773 84.3497 36.9947 85.075 37.592C85.843 38.1467 86.8243 38.424 88.019 38.424C89.1283 38.424 90.067 38.232 90.835 37.848C91.0483 37.6347 91.3683 37.016 91.795 35.992C91.8377 35.864 91.9657 35.5653 92.179 35.096C92.435 34.6267 92.627 34.3493 92.755 34.264C92.9683 34.3067 93.331 34.328 93.843 34.328C94.3123 34.328 95.1017 34.2853 96.211 34.2C97.3203 34.1147 98.1523 34.072 98.707 34.072C99.731 34.072 100.499 34.2 101.011 34.456L101.139 34.84ZM100.435 34.904C99.9657 34.776 99.411 34.712 98.771 34.712C97.9177 34.712 97.0857 34.776 96.275 34.904C95.0803 34.9893 94.2697 35.032 93.843 35.032C93.4163 35.032 93.1177 35.0107 92.947 34.968C92.7337 36.2053 92.2857 37.208 91.603 37.976C90.963 38.744 89.939 39.128 88.531 39.128C86.995 39.128 85.7577 38.7867 84.819 38.104C83.8803 37.4213 83.411 36.4613 83.411 35.224C83.411 34.9253 83.4537 34.4347 83.539 33.752L83.603 32.408C83.603 31.768 83.5817 31.256 83.539 30.872L83.475 29.08C83.475 27.288 83.9017 25.9013 84.755 24.92C85.651 23.9387 86.739 23.448 88.019 23.448C89.171 23.448 90.2377 23.8747 91.219 24.728C92.2003 25.5387 92.819 26.6267 93.075 27.992C93.715 28.2907 95.2083 28.44 97.555 28.44C99.0483 28.44 100.051 28.376 100.563 28.248L100.627 25.112C100.627 23.3627 100.478 21.8267 100.179 20.504C99.8803 19.1813 99.3043 18.136 98.451 17.368C97.2137 16.2587 95.9123 15.5333 94.547 15.192C93.1817 14.808 91.5817 14.616 89.747 14.616H86.739C84.691 14.616 82.899 14.7867 81.363 15.128C79.8697 15.4693 78.611 16.1733 77.587 17.24C76.307 18.6053 75.667 21.3573 75.667 25.496L75.731 27.928C75.7737 28.44 75.795 29.2293 75.795 30.296L75.731 34.584C75.731 38.424 76.371 41.2827 77.651 43.16C78.9737 44.9947 80.659 46.168 82.707 46.68C84.7977 47.192 87.507 47.448 90.835 47.448C92.5417 47.448 94.1417 47.2347 95.635 46.808C97.171 46.3387 98.3017 45.5067 99.027 44.312C99.4537 43.5013 99.731 42.648 99.859 41.752C99.987 40.856 100.072 39.7253 100.115 38.36C100.2 36.7813 100.307 35.6293 100.435 34.904ZM119.788 45.464C119.788 44.8667 119.809 44.4187 119.852 44.12C118.828 45.1013 117.569 45.8267 116.076 46.296C114.625 46.7653 113.302 47 112.108 47C109.036 47 106.753 46.232 105.26 44.696C104.833 44.2267 104.534 43.6293 104.364 42.904C104.193 42.136 104.086 41.432 104.044 40.792C104.001 40.1093 103.98 39.6613 103.98 39.448C103.852 37.528 103.788 35.6293 103.788 33.752C103.788 31.96 103.83 29.3147 103.916 25.816C104.044 23.1707 104.108 20.504 104.108 17.816L104.044 15.192C104.47 14.7653 105.516 14.552 107.18 14.552H112.364C112.662 15.192 112.812 16.0453 112.812 17.112C112.812 19.2027 112.79 20.7813 112.748 21.848L112.684 26.904C112.684 30.7867 113.11 33.5813 113.964 35.288L114.284 35.608C114.412 35.6933 114.668 35.8 115.052 35.928C115.478 36.056 115.862 36.1627 116.204 36.248C117.825 36.248 118.913 35.736 119.468 34.712C120.065 33.6453 120.364 32.3013 120.364 30.68C120.364 29.4427 120.342 28.376 120.3 27.48C120.257 26.5413 120.214 25.752 120.172 25.112C120.044 23.2347 119.98 21.4 119.98 19.608C119.98 18.84 120.044 18.1147 120.172 17.432C120.257 16.4933 120.3 15.768 120.3 15.256L120.492 14.872C121.686 14.5307 122.753 14.36 123.692 14.36C124.076 14.36 124.652 14.4027 125.42 14.488C126.102 14.5733 126.657 14.616 127.084 14.616C127.382 14.616 127.873 14.5733 128.556 14.488C128.556 14.488 128.662 14.5947 128.876 14.808C128.876 17.3253 128.918 21.0587 129.004 26.008L129.068 37.272C129.068 41.5387 129.025 44.7387 128.94 46.872C128.812 47 128.684 47.0853 128.556 47.128C128.428 47.1707 128.3 47.192 128.172 47.192L121.836 47.448C121.11 47.448 120.641 47.4053 120.428 47.32C120.214 47.2773 120.065 47.1493 119.98 46.936V47C119.852 46.5307 119.788 46.0187 119.788 45.464ZM120.556 45.144C120.598 45.528 120.62 46.0827 120.62 46.808C121.174 46.808 121.665 46.7867 122.092 46.744C122.561 46.7013 122.966 46.6587 123.308 46.616C124.588 46.4453 125.633 46.36 126.444 46.36C126.742 46.36 127.041 46.4027 127.34 46.488C127.638 46.5307 127.958 46.552 128.3 46.552C128.385 44.4613 128.428 41.3253 128.428 37.144L128.364 26.136C128.278 21.272 128.236 17.624 128.236 15.192C127.468 15.2773 126.806 15.32 126.252 15.32C125.953 15.32 125.462 15.2773 124.78 15.192L123.436 15.128C122.454 15.128 121.622 15.2347 120.94 15.448C120.94 15.9173 120.897 16.6213 120.812 17.56C120.684 18.2427 120.62 18.9467 120.62 19.672C120.62 21.2507 120.684 22.936 120.812 24.728C120.812 25.3253 120.833 26.2427 120.876 27.48C120.961 28.7173 121.003 29.8267 121.003 30.808C121.003 32.472 120.684 33.9013 120.044 35.096C119.446 36.2907 118.337 36.888 116.716 36.888C115.649 36.888 114.774 36.6747 114.092 36.248L114.028 36.184C112.705 35.5867 112.044 32.9413 112.044 28.248L112.108 23.768C112.193 21.8053 112.236 20.2907 112.236 19.224C112.236 17.8587 112.172 16.5147 112.044 15.192H108.78C106.945 15.192 105.58 15.256 104.684 15.384C104.726 15.9387 104.748 16.7707 104.748 17.88C104.748 20.0133 104.726 21.8907 104.684 23.512C104.641 25.1333 104.598 26.4773 104.556 27.544C104.428 30.6587 104.364 33.7733 104.364 36.888C104.364 39.0213 104.534 40.7493 104.876 42.072C105.217 43.3947 105.921 44.44 106.988 45.208C108.054 45.976 109.676 46.36 111.852 46.36C113.046 46.36 114.092 46.1893 114.988 45.848C115.884 45.5067 116.929 44.9733 118.124 44.248C118.38 44.12 118.657 43.9707 118.956 43.8C119.297 43.5867 119.66 43.3947 120.044 43.224L120.492 43.544L120.556 45.144ZM142.712 0.407997C142.712 6.21067 142.605 12.7813 142.392 20.12C142.349 21.7413 142.285 24.6213 142.2 28.76C142.115 32.8987 142.072 36.632 142.072 39.96C142.072 42.2213 142.2 44.44 142.456 46.616C142.456 46.9147 142.136 47.128 141.496 47.256C140.856 47.4267 140.173 47.512 139.448 47.512C138.851 47.512 137.784 47.4693 136.248 47.384C134.712 47.2987 133.517 47.256 132.664 47.256L132.792 45.208C132.835 44.3547 132.899 42.84 132.984 40.664C133.069 38.4453 133.112 36.504 133.112 34.84C133.112 32.3653 133.027 28.6107 132.856 23.576C132.685 18.6267 132.6 14.8933 132.6 12.376C132.6 7.29867 132.771 3.24533 133.112 0.216C133.155 0.173331 133.219 0.173331 133.304 0.216C133.389 0.216 133.453 0.194665 133.496 0.151997L142.2 0.343998L142.712 0.407997ZM133.752 0.791996C133.368 3.992 133.176 7.704 133.176 11.928C133.176 14.4453 133.261 18.2213 133.432 23.256C133.645 27.5227 133.752 31.3413 133.752 34.712C133.752 38.2533 133.645 42.2213 133.432 46.616L134.392 46.552C135.203 46.552 136.013 46.616 136.824 46.744C137.123 46.7867 137.464 46.8293 137.848 46.872C138.275 46.9147 138.765 46.936 139.32 46.936C140.301 46.936 141.112 46.7867 141.752 46.488C141.539 44.7813 141.432 42.712 141.432 40.28L141.496 36.312C141.539 35.4587 141.56 34.1573 141.56 32.408C141.56 28.952 141.603 23.7253 141.688 16.728C141.816 11.48 141.88 6.232 141.88 0.983997L133.752 0.791996ZM172.668 26.904C172.668 28.7387 172.71 31.448 172.796 35.032L172.86 43.16C172.86 44.5253 172.71 45.6133 172.412 46.424C172.113 47.192 171.601 47.576 170.876 47.576C170.406 47.576 169.98 47.4907 169.596 47.32H164.604C164.262 47.4053 164.028 47.448 163.9 47.448C163.089 47.448 162.684 46.8507 162.684 45.656C162.684 45.3147 162.726 44.8453 162.812 44.248C161.66 45.2293 160.422 45.9973 159.1 46.552C157.777 47.1067 156.433 47.384 155.068 47.384C153.702 47.384 152.508 47.128 151.484 46.616C150.289 46.0187 149.18 44.8453 148.156 43.096C147.174 41.3467 146.385 39.32 145.788 37.016C145.233 34.6693 144.956 32.3653 144.956 30.104C144.956 27.288 145.446 24.728 146.428 22.424C147.452 20.12 148.86 18.3067 150.652 16.984C152.444 15.6187 154.492 14.936 156.796 14.936C158.289 14.936 159.441 15.0853 160.252 15.384C161.062 15.64 161.766 16.1733 162.364 16.984C162.406 16.6853 162.449 16.344 162.492 15.96C162.577 15.576 162.62 15.2347 162.62 14.936L162.812 14.552C163.153 14.424 163.857 14.36 164.924 14.36C165.862 14.36 167.313 14.4453 169.276 14.616C170.428 14.744 171.43 14.808 172.284 14.808L172.604 15.128V15.384C172.732 15.768 172.796 16.3013 172.796 16.984C172.796 17.368 172.774 17.7093 172.732 18.008C172.689 18.264 172.668 18.4987 172.668 18.712V26.904ZM171.9 46.36C171.9 45.1227 171.942 43.1813 172.028 40.536C172.156 38.5307 172.22 36.5467 172.22 34.584L172.156 25.112C172.07 20.8453 172.028 17.688 172.028 15.64C171.985 15.5973 171.964 15.5333 171.964 15.448C170.513 15.448 169.041 15.384 167.548 15.256C165.67 15.1707 164.241 15.128 163.26 15.128C163.26 15.512 163.196 15.9387 163.068 16.408C163.025 16.5787 162.982 16.7707 162.94 16.984C162.897 17.1547 162.876 17.3893 162.876 17.688L162.94 18.072C162.94 18.1147 162.94 18.136 162.94 18.136C162.982 18.136 163.003 18.136 163.003 18.136C162.748 18.2213 162.556 18.264 162.428 18.264H162.364L162.3 18.136C161.702 17.112 160.977 16.4293 160.124 16.088C159.313 15.7467 158.204 15.576 156.796 15.576C154.577 15.576 152.614 16.216 150.908 17.496C149.244 18.7333 147.942 20.4613 147.004 22.68C146.108 24.8987 145.66 27.352 145.66 30.04C145.66 32.728 146.001 35.3733 146.684 37.976C147.409 40.536 148.476 42.648 149.884 44.312C151.334 45.976 153.062 46.808 155.068 46.808C156.476 46.808 157.884 46.4667 159.292 45.784C160.742 45.1013 162.001 44.2267 163.068 43.16C163.153 43.2453 163.324 43.3307 163.58 43.416C163.58 43.6293 163.537 43.992 163.452 44.504C163.366 44.9733 163.324 45.336 163.324 45.592C163.324 45.8907 163.345 46.1253 163.388 46.296C163.473 46.4667 163.622 46.616 163.836 46.744H164.284C164.796 46.5733 165.734 46.488 167.1 46.488C168.465 46.488 169.404 46.5733 169.916 46.744H171.516L171.9 46.36ZM159.612 23.448C160.806 23.448 161.638 23.64 162.108 24.024C162.62 24.3653 162.94 25.1333 163.068 26.328C163.238 27.48 163.324 29.4853 163.324 32.344C163.324 34.3067 163.004 35.8427 162.364 36.952C161.724 38.0187 160.636 38.552 159.1 38.552C157.094 38.552 155.537 37.8053 154.428 36.312C153.361 34.776 152.828 32.984 152.828 30.936C152.828 29.7413 153.02 28.6747 153.404 27.736L153.34 27.8C153.596 26.392 154.321 25.3253 155.516 24.6C156.71 23.832 158.076 23.448 159.612 23.448ZM162.62 30.36L162.684 27.864C162.684 26.6693 162.534 25.752 162.236 25.112C161.98 24.4293 161.34 24.088 160.316 24.088C158.694 24.088 157.286 24.3867 156.092 24.984C154.94 25.5813 154.236 26.584 153.98 27.992C153.638 28.7173 153.468 29.6773 153.468 30.872C153.468 32.792 153.937 34.456 154.876 35.864C155.857 37.2293 157.222 37.912 158.972 37.912C161.446 37.912 162.684 36.3333 162.684 33.176L162.62 30.36ZM188.769 15.064C190.006 15.064 191.862 14.9787 194.337 14.808C195.233 14.7227 196.492 14.6373 198.113 14.552C198.71 15.192 199.009 16.152 199.009 17.432C199.009 18.1147 198.945 18.8187 198.817 19.544C198.732 20.4827 198.689 21.1653 198.689 21.592C198.689 22.0187 198.71 22.3387 198.753 22.552L198.881 23.32L188.897 23.192V29.4C188.897 32.1733 188.918 34.264 188.961 35.672C189.516 36.568 190.561 37.208 192.097 37.592C193.633 37.9333 195.254 38.104 196.961 38.104C197.686 38.104 198.198 38.0827 198.497 38.04C199.009 39.064 199.265 41.112 199.265 44.184C199.265 45.2507 199.116 46.232 198.817 47.128C198.518 47.2987 197.878 47.384 196.897 47.384C192.929 47.384 189.537 47.0213 186.721 46.296C183.948 45.5707 181.942 43.9707 180.705 41.496C180.321 40.7707 180.065 39.6827 179.937 38.232C179.809 36.7387 179.724 35.416 179.681 34.264C179.681 33.112 179.681 32.408 179.681 32.152C179.596 29.848 179.553 28.1413 179.553 27.032C179.553 25.4107 179.574 24.1947 179.617 23.384C179.233 23.4267 178.764 23.448 178.209 23.448C177.697 23.448 177.334 23.448 177.121 23.448C176.012 23.448 175.308 23.2987 175.009 23V22.36V19.608C175.009 16.664 175.201 15.1067 175.585 14.936C176.054 14.9787 176.737 15 177.633 15H179.745C179.745 14.104 179.702 12.632 179.617 10.584C179.489 8.96266 179.425 7.36266 179.425 5.784C179.425 4.80266 179.532 4.03466 179.745 3.48C179.958 2.92533 180.428 2.648 181.153 2.648C181.708 2.648 182.198 2.66933 182.625 2.712C183.094 2.75466 183.478 2.79733 183.777 2.84C184.972 3.01066 185.889 3.096 186.529 3.096C187.212 3.096 187.724 3.05333 188.065 2.968L188.769 2.84V15.064ZM188.065 3.672C187.468 3.75733 187.02 3.8 186.721 3.8C186.124 3.8 185.228 3.71467 184.033 3.544C182.753 3.37333 181.836 3.288 181.281 3.288C180.854 3.288 180.577 3.37333 180.449 3.544C180.321 3.672 180.257 3.88533 180.257 4.184L180.321 9.752C180.364 10.9893 180.385 12.8453 180.385 15.32C180.086 15.6187 179.468 15.768 178.529 15.768C178.017 15.768 177.548 15.7467 177.121 15.704C176.694 15.6613 176.268 15.64 175.841 15.64L175.649 22.744C176.972 22.744 178.529 22.6587 180.321 22.488C180.236 23.5973 180.193 25.3253 180.193 27.672C180.193 31.3413 180.364 34.6267 180.705 37.528C180.748 37.8267 180.79 38.36 180.833 39.128C180.918 39.8533 181.046 40.5147 181.217 41.112C181.388 41.7093 181.644 42.2213 181.985 42.648C184.161 45.3787 188.662 46.744 195.489 46.744C196.769 46.744 197.686 46.7227 198.241 46.68C198.497 45.8267 198.625 44.9733 198.625 44.12C198.625 43.1813 198.561 42.1573 198.433 41.048C198.305 39.896 198.22 39.1067 198.177 38.68C197.921 38.7227 197.452 38.744 196.769 38.744C194.849 38.744 192.929 38.4667 191.009 37.912C189.132 37.3147 188.193 36.3973 188.193 35.16L188.257 33.944L188.321 28.248C188.321 26.1147 188.3 24.6427 188.257 23.832C188.214 23.0213 188.214 22.5947 188.257 22.552H198.049C197.964 22.1253 197.921 21.784 197.921 21.528C197.921 20.888 197.985 20.2267 198.113 19.544C198.113 19.3307 198.134 18.9893 198.177 18.52C198.262 18.0507 198.305 17.6453 198.305 17.304C198.305 16.408 198.177 15.704 197.921 15.192L195.041 15.384C194.444 15.4267 193.398 15.4907 191.905 15.576C190.454 15.6613 189.174 15.704 188.065 15.704V3.672ZM214.287 39.96C216.762 39.96 217.999 38.232 217.999 34.776L218.383 34.392C218.596 34.4347 218.959 34.456 219.471 34.456C219.94 34.456 220.73 34.4133 221.839 34.328C222.948 34.2427 223.759 34.2 224.271 34.2C224.954 34.2 225.487 34.2427 225.871 34.328C226.255 34.4133 226.532 34.6267 226.703 34.968C226.532 35.7787 226.404 37.016 226.319 38.68C226.148 40.856 225.871 42.5627 225.487 43.8C225.103 45.0373 224.207 46.0827 222.799 46.936C221.434 47.7467 219.343 48.152 216.527 48.152H214.095C211.962 48.152 210.127 47.96 208.591 47.576C207.055 47.2347 205.775 46.488 204.751 45.336C201.764 41.88 200.271 37.0587 200.271 30.872C200.271 28.2267 200.527 25.4107 201.039 22.424C201.508 19.5653 202.959 17.4107 205.391 15.96C207.823 14.5093 210.596 13.784 213.711 13.784C215.204 13.784 216.762 13.9547 218.383 14.296C220.004 14.6373 221.37 15.2133 222.479 16.024C224.058 17.2187 225.21 18.84 225.935 20.888C226.66 22.8933 227.023 25.0693 227.023 27.416C227.023 28.44 226.959 29.4427 226.831 30.424C226.106 31.1493 222.308 31.512 215.439 31.512C214.756 31.512 214.223 31.5333 213.839 31.576L211.727 31.64C210.874 31.64 210.191 31.5547 209.679 31.384V32.088C209.679 34.264 210.02 36.12 210.703 37.656C211.386 39.192 212.58 39.96 214.287 39.96ZM209.039 31C209.338 30.7867 209.508 30.68 209.551 30.68C209.935 30.8933 210.66 31 211.727 31C212.41 31 212.986 30.9787 213.455 30.936C213.924 30.8933 214.287 30.872 214.543 30.872C221.071 30.872 224.954 30.6373 226.191 30.168C226.276 28.9733 226.319 28.0773 226.319 27.48C226.319 22.8293 225.039 19.288 222.479 16.856C221.54 15.9173 220.26 15.2773 218.639 14.936C217.018 14.552 215.311 14.36 213.519 14.36C211.215 14.36 209.082 14.808 207.119 15.704C205.156 16.5573 203.642 17.88 202.575 19.672C201.935 20.824 201.508 22.2107 201.295 23.832C201.082 25.4533 200.975 27.2453 200.975 29.208C200.975 32.6213 201.252 35.608 201.807 38.168C202.362 40.728 203.492 42.968 205.199 44.888C206.138 45.9547 207.332 46.6587 208.783 47C210.276 47.3413 212.047 47.512 214.095 47.512H216.911C219.471 47.512 221.37 47.0853 222.607 46.232C223.887 45.336 224.698 44.248 225.039 42.968C225.38 41.688 225.615 40.024 225.743 37.976C225.828 36.6107 225.914 35.6507 225.999 35.096C225.53 34.9253 224.911 34.84 224.143 34.84C223.29 34.84 222.415 34.904 221.519 35.032C220.41 35.1173 219.663 35.16 219.279 35.16L218.639 35.096C218.639 36.632 218.234 37.976 217.423 39.128C216.612 40.2373 215.61 40.792 214.415 40.792C212.41 40.792 211.002 39.9173 210.191 38.168C209.423 36.376 209.039 34.3707 209.039 32.152V31ZM219.919 25.944C219.919 26.1573 219.77 26.3067 219.471 26.392C219.215 26.4773 218.916 26.52 218.575 26.52C217.935 26.52 217.402 26.4347 216.975 26.264H213.455C212.303 26.392 211.535 26.456 211.151 26.456C209.786 26.456 209.103 26.0507 209.103 25.24C209.103 23.576 209.594 22.3173 210.575 21.464C211.556 20.568 212.836 20.12 214.415 20.12C215.482 20.12 216.442 20.3333 217.295 20.76C219.044 21.656 219.919 23.384 219.919 25.944ZM214.223 20.632C212.943 20.632 211.876 21.08 211.023 21.976C210.17 22.872 209.743 24.0453 209.743 25.496C210.255 25.752 210.874 25.88 211.599 25.88C212.068 25.88 212.474 25.8587 212.815 25.816C213.199 25.7733 213.519 25.7307 213.775 25.688C214.5 25.56 215.204 25.496 215.887 25.496C216.356 25.496 216.975 25.5387 217.743 25.624C218.426 25.7093 218.938 25.752 219.279 25.752C219.279 23.5333 218.511 22.0613 216.975 21.336C215.951 20.8667 215.034 20.632 214.223 20.632ZM236.645 1.368C238.181 1.368 239.055 1.56 239.269 1.944C239.055 7.78933 238.949 13.0373 238.949 17.688C238.949 23.7467 239.077 29.784 239.333 35.8C239.119 36.2693 237.69 36.504 235.045 36.504C234.874 36.504 234.298 36.504 233.317 36.504C232.378 36.504 231.354 36.3973 230.245 36.184C230.245 31.6187 230.223 28.1627 230.181 25.816L230.117 15.384C230.117 9.83733 230.245 5.29333 230.501 1.752C230.543 1.70933 230.607 1.70933 230.693 1.752C230.821 1.79467 230.949 1.79467 231.077 1.752C231.717 1.752 232.25 1.73067 232.677 1.688C233.146 1.64533 233.551 1.60266 233.893 1.56C234.789 1.432 235.706 1.368 236.645 1.368ZM236.517 1.944C236.09 1.944 235.599 1.98666 235.045 2.072C234.533 2.11466 234.149 2.136 233.893 2.136C232.698 2.30666 231.781 2.392 231.141 2.392C230.885 6.78666 230.757 11.224 230.757 15.704C230.757 18.392 230.799 22.424 230.885 27.8C230.97 31.384 231.013 34.0507 231.013 35.8C232.549 35.8853 233.765 35.928 234.661 35.928C236.069 35.928 237.413 35.8 238.693 35.544C238.437 29.5707 238.309 23.6187 238.309 17.688C238.309 13.0373 238.415 7.87466 238.629 2.2C237.989 2.02933 237.285 1.944 236.517 1.944ZM231.013 47.256C230.757 47.1707 230.629 46.6373 230.629 45.656C230.629 44.504 230.693 43.224 230.821 41.816C230.906 41.1333 230.949 40.6 230.949 40.216V39.448C231.247 39.0213 232.399 38.808 234.405 38.808C236.239 38.808 237.903 38.9573 239.397 39.256C239.311 40.28 239.269 41.8587 239.269 43.992V47.128C238.415 47.2133 237.925 47.256 237.797 47.256C237.327 47.256 236.922 47.2347 236.581 47.192L231.077 47.256H231.013ZM236.325 46.552L238.565 46.616C238.565 43.4587 238.629 41.112 238.757 39.576C238.202 39.576 237.327 39.5333 236.133 39.448C235.023 39.3627 234.191 39.32 233.637 39.32C232.911 39.32 232.229 39.4053 231.589 39.576C231.589 40.728 231.525 41.88 231.397 43.032C231.354 43.416 231.311 43.9707 231.269 44.696C231.226 45.3787 231.205 45.9973 231.205 46.552V46.616L236.325 46.552Z" fill="black"/>
</svg>
